<?xml version="1.0" encoding="utf-8"?>
<!-- Generator: Adobe Illustrator 17.0.0, SVG Export Plug-In . SVG Version: 6.00 Build 0)  -->
<!DOCTYPE svg PUBLIC "-//W3C//DTD SVG 1.1//EN" "http://www.w3.org/Graphics/SVG/1.1/DTD/svg11.dtd">
<svg version="1.1" id="Layer_1" xmlns="http://www.w3.org/2000/svg" xmlns:xlink="http://www.w3.org/1999/xlink" x="0px" y="0px"
	 width="34.977px" height="34.977px" viewBox="0 0 34.977 34.977" enable-background="new 0 0 34.977 34.977" xml:space="preserve">
<g id="DISCUSSION_ICON_5_">
	<path fill="#969696" d="M17.489,0C7.83,0,0,7.828,0,17.489c0,9.656,7.83,17.489,17.489,17.489s17.489-7.833,17.489-17.489
		C34.977,7.828,27.148,0,17.489,0z M17.489,31.684c-7.83,0-14.199-6.369-14.199-14.196c0-7.83,6.369-14.196,14.199-14.196
		c7.83,0,14.196,6.366,14.196,14.196C31.684,25.315,25.318,31.684,17.489,31.684z"/>
	<g>
		<g>
			<g>
				<path fill="#969696" d="M18.54,23.09c-5.433,0-9.858-3.016-9.858-6.721c0-0.316,0.037-0.629,0.102-0.933
					c-0.952,0.893-1.51,1.983-1.51,3.16c0,1.186,0.567,2.282,1.529,3.178c-0.27,1.239-0.682,2.952-0.682,2.952
					s2.899-0.679,4.425-1.019c0.909,0.228,1.888,0.358,2.921,0.358c1.845,0,3.544-0.406,4.915-1.096
					C19.78,23.048,19.163,23.09,18.54,23.09z"/>
			</g>
			<g>
				<path fill="#969696" d="M25.997,19.924c1.07-1.003,1.706-2.228,1.706-3.555c0-3.377-4.099-6.115-9.163-6.115
					c-5.058,0-9.163,2.738-9.163,6.115c0,3.378,4.105,6.118,9.163,6.118c1.15,0,2.251-0.143,3.268-0.402
					c1.705,0.381,4.949,1.138,4.949,1.138S26.295,21.312,25.997,19.924z"/>
			</g>
		</g>
	</g>
</g>
</svg>
