<?xml version="1.0" encoding="utf-8"?>
<!-- Generator: Adobe Illustrator 17.0.0, SVG Export Plug-In . SVG Version: 6.00 Build 0)  -->
<!DOCTYPE svg PUBLIC "-//W3C//DTD SVG 1.1//EN" "http://www.w3.org/Graphics/SVG/1.1/DTD/svg11.dtd">
<svg version="1.1" id="Layer_1" xmlns="http://www.w3.org/2000/svg" xmlns:xlink="http://www.w3.org/1999/xlink" x="0px" y="0px"
	 width="34.977px" height="34.98px" viewBox="0 0 34.977 34.98" enable-background="new 0 0 34.977 34.98" xml:space="preserve">
<path id="CHOP_ICON_10_" fill="#969696" d="M17.492,0C7.833,0,0,7.831,0,17.49c0,9.657,7.833,17.49,17.492,17.49
	c9.656,0,17.485-7.833,17.485-17.49C34.977,7.831,27.148,0,17.492,0z M17.492,3.293c1.612,0,3.16,0.285,4.608,0.784
	c-2.208,0.589-3.836,2.595-3.836,4.991c0,0.15,0.009,0.296,0.022,0.442l-7.823,4.629c-0.825-0.777-1.935-1.256-3.157-1.256
	c-1.55,0-2.918,0.767-3.752,1.943C4.803,8.27,10.577,3.293,17.492,3.293z M3.554,20.155c0.834,1.175,2.202,1.943,3.752,1.943
	c1.026,0,1.972-0.339,2.738-0.907l7.467,4.713c-0.009,0.129-0.019,0.261-0.019,0.391c0,2.341,1.597,4.304,3.761,4.871
	c-1.2,0.332-2.459,0.524-3.761,0.524C10.577,31.69,4.803,26.714,3.554,20.155z M27.386,27.652c0.121-0.433,0.189-0.885,0.189-1.357
	c0-2.785-2.26-5.044-5.042-5.044c-1.107,0-2.127,0.36-2.958,0.966l-7.805-3.609c0.09-0.36,0.14-0.732,0.14-1.118
	c0-0.203-0.015-0.405-0.04-0.605l8.512-3.648c0.859,0.629,1.91,1.005,3.054,1.005c2.859,0,5.172-2.316,5.172-5.174
	c0-0.135-0.009-0.271-0.019-0.408c1.935,2.428,3.098,5.493,3.098,8.83C31.687,21.472,30.034,25.07,27.386,27.652z"/>
</svg>
