<?xml version="1.0" encoding="utf-8"?>
<!-- Generator: Adobe Illustrator 17.0.0, SVG Export Plug-In . SVG Version: 6.00 Build 0)  -->
<!DOCTYPE svg PUBLIC "-//W3C//DTD SVG 1.1//EN" "http://www.w3.org/Graphics/SVG/1.1/DTD/svg11.dtd">
<svg version="1.1" id="Layer_1" xmlns="http://www.w3.org/2000/svg" xmlns:xlink="http://www.w3.org/1999/xlink" x="0px" y="0px"
	 width="34.977px" height="34.977px" viewBox="0 0 34.977 34.977" enable-background="new 0 0 34.977 34.977" xml:space="preserve">
<g id="GO_TO_EEKOH_PAGE_ICON_5_">
	<path fill="#969696" d="M17.49,0C7.828,0,0,7.828,0,17.489c0,9.656,7.828,17.489,17.49,17.489c9.659,0,17.487-7.833,17.487-17.489
		C34.977,7.828,27.149,0,17.49,0z M17.49,31.684c-7.83,0-14.199-6.369-14.199-14.196c0-7.83,6.369-14.196,14.199-14.196
		c7.828,0,14.196,6.366,14.196,14.196C31.686,25.315,25.318,31.684,17.49,31.684z"/>
	<ellipse fill="none" stroke="#969696" stroke-miterlimit="10" cx="17.489" cy="17.489" rx="4.79" ry="14.196"/>
	
		<ellipse transform="matrix(0.5001 -0.8659 0.8659 0.5001 -6.4011 23.8851)" fill="none" stroke="#969696" stroke-miterlimit="10" cx="17.489" cy="17.487" rx="4.789" ry="14.197"/>
	
		<ellipse transform="matrix(-0.5001 -0.8659 0.8659 -0.5001 11.0927 41.3774)" fill="none" stroke="#969696" stroke-miterlimit="10" cx="17.489" cy="17.487" rx="4.789" ry="14.196"/>
	<g>
		<g>
			<path fill="#969696" d="M19.059,22.59c0,0-0.288-0.037-0.732-0.397c-0.439-0.357-1.326-2.546-0.812-3.971
				c0.512-1.419,1.185-1.66,1.185-1.66s-0.924,0.045-1.709,1.575c-0.784,1.529-0.324,3.615-0.257,3.938
				c0.062,0.319-0.36,0.515-0.36,0.515H19.059z"/>
			<path fill="#969696" d="M17.633,16.841c-0.008-0.037-0.017-0.071-0.025-0.099c-0.064-0.237-0.315-0.611-0.315-0.611
				s0.18,0.474,0.198,0.784c0.017,0.307-0.028,0.609-0.028,0.609l0.27,0.005C17.734,17.529,17.693,17.096,17.633,16.841z"/>
			<path fill="#969696" d="M17.113,18.921c0,0-0.343-0.586-0.558-0.825c-0.216-0.237-0.819-0.519-0.819-0.519
				s0.504,0.464,0.698,0.802c0.191,0.341,0.291,0.709,0.291,0.709L17.113,18.921z"/>
			<path fill="#969696" d="M17.017,20.196c0,0-0.515-0.281-0.749-0.383c-0.234-0.104-0.696-0.147-0.696-0.147
				s0.521,0.174,0.769,0.357c0.25,0.184,0.437,0.418,0.437,0.418L17.017,20.196z"/>
			<path fill="#969696" d="M17.175,20.462c0,0,0.398-0.298,0.605-0.394c0.239-0.112,0.668-0.14,0.668-0.14s-0.484,0.186-0.682,0.386
				c-0.197,0.2-0.343,0.439-0.343,0.439L17.175,20.462z"/>
			<path fill="#969696" d="M16.892,19.092c0,0,0.733-0.422,1.064-0.58c0.33-0.152,0.963-0.178,0.963-0.178s-0.721,0.222-1.079,0.498
				c-0.357,0.276-0.634,0.626-0.634,0.626L16.892,19.092z"/>
		</g>
		<path fill="#969696" d="M19.273,19.024c-0.346,0.164-0.687,0.05-0.899-0.152c0.054,0,0.115-0.011,0.175-0.04
			c0.264-0.127,0.733-0.741,0.733-0.741s-0.673-0.23-0.983-0.062c-0.062,0.034-0.115,0.071-0.157,0.105
			c0.029-0.248,0.175-0.493,0.633-0.738c0.626-0.341,1.989,0.118,1.989,0.118S19.813,18.763,19.273,19.024z"/>
		<path fill="#969696" d="M19.468,16.906c-0.264,0.233-0.595,0.217-0.834,0.093c0.048-0.012,0.098-0.04,0.141-0.074
			c0.206-0.183,0.465-0.85,0.465-0.85s-0.654-0.028-0.882,0.195c-0.051,0.05-0.088,0.096-0.115,0.135
			c-0.039-0.228,0.031-0.481,0.371-0.814c0.467-0.459,1.791-0.4,1.791-0.4S19.878,16.54,19.468,16.906z"/>
		<path fill="#969696" d="M16.09,16.748c0.257,0.254,0.267,0.598,0.154,0.853c-0.017-0.048-0.048-0.099-0.091-0.143
			c-0.2-0.197-0.904-0.418-0.904-0.418s0.016,0.676,0.264,0.896c0.053,0.05,0.101,0.084,0.146,0.109
			c-0.233,0.056-0.499,0-0.867-0.326c-0.502-0.453-0.532-1.82-0.532-1.82S15.684,16.348,16.09,16.748z"/>
		<path fill="#969696" d="M15.83,18.999c0.288,0.102,0.417,0.363,0.423,0.599c-0.033-0.031-0.073-0.06-0.119-0.077
			c-0.225-0.078-0.84,0.006-0.84,0.006s0.251,0.509,0.522,0.589c0.059,0.017,0.105,0.028,0.149,0.031
			c-0.158,0.124-0.378,0.18-0.778,0.059c-0.547-0.161-1.061-1.197-1.061-1.197S15.374,18.841,15.83,18.999z"/>
		<path fill="#969696" d="M17.923,15.165c0.209,0.364,0.109,0.749-0.095,0.997c-0.003-0.059-0.02-0.124-0.056-0.186
			c-0.163-0.281-0.876-0.744-0.876-0.744s-0.194,0.758,0.016,1.079c0.045,0.07,0.088,0.124,0.13,0.167
			c-0.276-0.012-0.555-0.153-0.863-0.631c-0.422-0.659-0.036-2.192-0.036-2.192S17.596,14.596,17.923,15.165z"/>
		<path fill="#969696" d="M18.735,20.54c-0.246,0.026-0.437-0.115-0.53-0.285c0.033,0.012,0.073,0.019,0.113,0.012
			c0.191-0.022,0.595-0.301,0.595-0.301s-0.377-0.282-0.6-0.245c-0.045,0.008-0.085,0.019-0.116,0.031
			c0.064-0.147,0.201-0.267,0.53-0.322c0.451-0.074,1.219,0.496,1.219,0.496S19.123,20.493,18.735,20.54z"/>
		<path fill="#969696" d="M13.543,17.771c0,0,0.549-0.105,0.851,0.068c0.307,0.174,0.322,0.561,0.322,0.561
			s-0.304,0.214-0.616,0.059C13.789,18.298,13.543,17.771,13.543,17.771z"/>
		<path fill="#969696" d="M15.206,21.003c0,0,0.274-0.485,0.603-0.606c0.325-0.121,0.629,0.118,0.629,0.118s-0.029,0.369-0.35,0.505
			C15.766,21.157,15.206,21.003,15.206,21.003z"/>
		<path fill="#969696" d="M20.963,16.45c0,0-0.208,0.375-0.462,0.468c-0.254,0.093-0.487-0.088-0.487-0.088s0.022-0.285,0.27-0.391
			C20.53,16.334,20.963,16.45,20.963,16.45z"/>
		<path fill="#969696" d="M19.177,21.296c0,0-0.425,0.059-0.651-0.087c-0.228-0.146-0.223-0.44-0.223-0.44s0.239-0.157,0.473-0.022
			C19.01,20.881,19.177,21.296,19.177,21.296z"/>
		<path fill="#969696" d="M14.789,15.025c0,0,0.492,0.025,0.716,0.237c0.226,0.212,0.16,0.549,0.16,0.549s-0.305,0.121-0.543-0.081
			C14.887,15.529,14.789,15.025,14.789,15.025z"/>
		<path fill="#969696" d="M20.442,18.94c0,0-0.22,0.378-0.479,0.468c-0.259,0.093-0.498-0.098-0.498-0.098s0.028-0.288,0.285-0.394
			C20.003,18.813,20.442,18.94,20.442,18.94z"/>
		<path fill="#969696" d="M18.692,13.61c0,0,0.281,0.552,0.192,0.933c-0.091,0.378-0.501,0.516-0.501,0.516s-0.327-0.256-0.251-0.64
			C18.202,14.034,18.692,13.61,18.692,13.61z"/>
	</g>
</g>
</svg>
