<?xml version="1.0" encoding="utf-8"?>
<!-- Generator: Adobe Illustrator 17.0.0, SVG Export Plug-In . SVG Version: 6.00 Build 0)  -->
<!DOCTYPE svg PUBLIC "-//W3C//DTD SVG 1.1//EN" "http://www.w3.org/Graphics/SVG/1.1/DTD/svg11.dtd">
<svg version="1.1" id="Layer_1" xmlns="http://www.w3.org/2000/svg" xmlns:xlink="http://www.w3.org/1999/xlink" x="0px" y="0px"
	 width="34.977px" height="34.977px" viewBox="0 0 34.977 34.977" enable-background="new 0 0 34.977 34.977" xml:space="preserve">
<g>
	<path fill="#969696" d="M17.489,0C7.83,0,0,7.828,0,17.489c0,9.656,7.83,17.489,17.489,17.489s17.489-7.833,17.489-17.489
		C34.977,7.828,27.148,0,17.489,0z M17.489,31.684c-7.83,0-14.199-6.369-14.199-14.196c0-7.83,6.369-14.196,14.199-14.196
		c7.83,0,14.196,6.366,14.196,14.196C31.684,25.315,25.318,31.684,17.489,31.684z"/>
	<g>
		<path fill="#969696" d="M11.935,19.501c0,0,0.521-3.837,2.518-5.95c1.999-2.116,4.744-2.815,4.744-2.815s-0.121-0.834-0.947-2.044
			c-0.826-1.209-1.49-1.525-1.49-1.525s-1.472,1.703-4.248,3.542c-2.427,1.608-5.64,1.565-5.64,1.565S6.517,14.29,8.31,16.634
			C10.103,18.978,11.935,19.501,11.935,19.501z"/>
		<path fill="#969696" d="M13.351,9.956C13.2,9.735,13.012,9.46,12.931,9.34c-0.146-0.214-0.151-0.367,0.15-0.573
			c0.301-0.206,0.913-0.624,0.913-0.624s0.612-0.418,0.913-0.624c0.301-0.206,0.442-0.145,0.588,0.068
			c0.055,0.08,0.158,0.231,0.265,0.388C15.204,8.499,14.395,9.2,13.351,9.956z"/>
		<path fill="#969696" d="M20.192,21.475c-2.717-3.126-4.136-6.719-4.863-8.549c0.233-0.193,0.478-0.38,0.736-0.557
			c0.604-0.412,1.202-0.726,1.713-0.958c0.209,0.855,0.836,2.979,2.893,6.175c2.789,4.335,4.76,5.952,5.262,6.321
			c0.503,0.369,0.69,0.811,0.366,1.545c-0.325,0.735-1.034,2.358-1.866,2.357c-1.083-0.001-0.873-1.349-1.244-2.114
			C22.532,24.342,21.611,23.108,20.192,21.475z"/>
	</g>
</g>
</svg>
