<?xml version="1.0" encoding="utf-8"?>
<!-- Generator: Adobe Illustrator 17.0.0, SVG Export Plug-In . SVG Version: 6.00 Build 0)  -->
<!DOCTYPE svg PUBLIC "-//W3C//DTD SVG 1.1//EN" "http://www.w3.org/Graphics/SVG/1.1/DTD/svg11.dtd">
<svg version="1.1" id="Layer_1" xmlns="http://www.w3.org/2000/svg" xmlns:xlink="http://www.w3.org/1999/xlink" x="0px" y="0px"
	 width="34.977px" height="34.977px" viewBox="0 0 34.977 34.977" enable-background="new 0 0 34.977 34.977" xml:space="preserve">
<g id="ADD_TO_EEKOH-SYS_ICON_5_">
	<path fill="#969696" d="M22.024,16.363c-1.353,0.73-1.795,1.46-1.884,2.203c0.124-0.101,0.282-0.206,0.473-0.312
		c0.924-0.499,2.93,0.177,2.93,0.177s-1.4,1.839-2.197,2.223c-0.177,0.084-0.349,0.115-0.515,0.115
		c0.636,0.6,1.653,0.949,2.685,0.453c1.609-0.775,4.453-4.507,4.453-4.507S23.898,15.348,22.024,16.363z"/>
	<path fill="#969696" d="M24.097,14.901c1.228-1.095,2.795-5.116,2.795-5.116s-3.946-0.178-5.346,1.192
		c-1.011,0.992-1.22,1.746-1.11,2.43c0.087-0.124,0.194-0.256,0.34-0.395c0.691-0.678,2.637-0.589,2.637-0.589
		s-0.774,1.985-1.381,2.521c-0.13,0.121-0.278,0.192-0.426,0.233C22.32,15.549,23.307,15.6,24.097,14.901z"/>
	<path fill="#969696" d="M8.549,11.895c0,0,0.085,4.084,1.592,5.43c1.095,0.977,1.884,1.141,2.581,0.977
		c-0.135-0.079-0.276-0.183-0.434-0.319c-0.744-0.667-0.786-2.676-0.786-2.676s2.101,0.657,2.695,1.246
		c0.133,0.127,0.219,0.276,0.27,0.425c0.336-0.763,0.321-1.786-0.453-2.546C12.802,13.237,8.549,11.895,8.549,11.895z"/>
	<path fill="#969696" d="M8.148,21.179c0,0,1.535,3.088,3.169,3.575c1.188,0.354,1.848,0.195,2.324-0.18
		c-0.129-0.013-0.276-0.044-0.448-0.09c-0.806-0.242-1.563-1.764-1.563-1.764s1.842-0.248,2.51-0.012
		c0.149,0.05,0.264,0.13,0.357,0.226c-0.017-0.701-0.397-1.479-1.261-1.783C11.879,20.673,8.148,21.179,8.148,21.179z"/>
	<path fill="#969696" d="M14.169,5.197c0,0-1.157,4.577,0.109,6.543c0.918,1.423,1.747,1.848,2.575,1.882
		c-0.123-0.127-0.251-0.29-0.382-0.493c-0.626-0.967-0.054-3.222-0.054-3.222s2.133,1.38,2.62,2.217
		c0.105,0.186,0.155,0.378,0.166,0.558c0.608-0.747,0.907-1.891,0.279-2.98C18.501,8,14.169,5.197,14.169,5.197z"/>
	<path fill="#969696" d="M21.881,22.442c-0.981,0.164-1.391,0.516-1.585,0.957c0.098-0.037,0.214-0.068,0.352-0.09
		c0.67-0.112,1.795,0.726,1.795,0.726s-1.215,0.837-1.781,0.902c-0.126,0.015-0.239,0-0.341-0.037
		c0.284,0.502,0.854,0.933,1.588,0.85c1.147-0.135,3.609-1.83,3.609-1.83S23.235,22.217,21.881,22.442z"/>
	<path fill="#969696" d="M9.91,19.358c0,0-0.045-1.15-0.958-1.668c-0.909-0.518-2.541-0.205-2.541-0.205s0.733,1.578,1.667,2.05
		C9.008,20.003,9.91,19.358,9.91,19.358z"/>
	<path fill="#969696" d="M11.372,27.135c0,0,1.674,0.456,2.634,0.047c0.963-0.406,1.05-1.509,1.05-1.509s-0.908-0.709-1.885-0.349
		C12.186,25.687,11.372,27.135,11.372,27.135z"/>
	<path fill="#969696" d="M25.726,14.673c0,0,0.699,0.546,1.454,0.267c0.754-0.279,1.382-1.394,1.382-1.394s-1.29-0.354-2.031-0.039
		C25.791,13.824,25.726,14.673,25.726,14.673z"/>
	<path fill="#969696" d="M22.031,26.369c-0.701-0.4-1.416,0.06-1.416,0.06s-0.011,0.885,0.667,1.319
		c0.679,0.434,1.944,0.257,1.944,0.257S22.731,26.766,22.031,26.369z"/>
	<path fill="#969696" d="M12.738,11.631c0,0,0.206-0.997-0.467-1.634c-0.674-0.636-2.146-0.712-2.146-0.712s0.298,1.512,1,2.112
		C11.83,12,12.738,11.631,12.738,11.631z"/>
	<path fill="#969696" d="M24.935,20.906c-0.761,0.31-0.845,1.178-0.845,1.178s0.707,0.567,1.482,0.291
		c0.777-0.273,1.433-1.399,1.433-1.399S25.693,20.596,24.935,20.906z"/>
	<path fill="#969696" d="M20.856,9.389c0,0,1.223-0.403,1.495-1.541c0.271-1.136-0.571-2.788-0.571-2.788s-1.462,1.275-1.678,2.417
		C19.887,8.623,20.856,9.389,20.856,9.389z"/>
	<path fill="#969696" d="M17.489,0C7.828,0,0,7.828,0,17.489c0,9.656,7.828,17.489,17.489,17.489
		c9.657,0,17.489-7.833,17.489-17.489C34.977,7.828,27.146,0,17.489,0z M21.321,31.145c-0.194-0.13-0.4-0.276-0.623-0.459
		c-0.668-0.543-1.682-2.506-2.316-4.859c0.171-0.229,0.384-0.498,0.634-0.747c0.588-0.595,2.034-1.155,2.034-1.155
		s-1.279,0.088-1.995,0.423c-0.245,0.112-0.581,0.326-0.899,0.536c-0.203-0.949-0.33-1.935-0.346-2.902
		c0.344-0.375,0.843-0.88,1.425-1.33c1.067-0.831,3.219-1.488,3.219-1.488s-1.885,0.074-2.876,0.541
		c-0.434,0.206-1.099,0.564-1.71,0.904c0.068-0.62,0.194-1.215,0.392-1.772c1.532-4.247,3.544-4.964,3.544-4.964
		s-1.384,0.079-3.026,1.744c-0.045-0.318-0.101-0.645-0.161-0.912c-0.025-0.109-0.051-0.211-0.076-0.298
		c-0.191-0.701-0.94-1.814-0.94-1.814s0.538,1.417,0.595,2.332c0.034,0.521,0,1.033-0.033,1.385
		c-0.487,0.597-0.981,1.335-1.461,2.267c-0.172,0.336-0.319,0.684-0.453,1.036c-0.287-0.429-0.599-0.873-0.851-1.152
		c-0.64-0.712-2.443-1.557-2.443-1.557s1.507,1.385,2.081,2.4c0.377,0.667,0.631,1.358,0.764,1.761
		c-0.239,0.974-0.369,1.966-0.42,2.921c-0.31-0.158-0.612-0.31-0.834-0.406c-0.698-0.31-2.081-0.44-2.081-0.44
		s1.553,0.518,2.298,1.07c0.219,0.161,0.418,0.335,0.595,0.496c-0.048,2.744,0.459,5.073,0.569,5.628
		c0.104,0.515-0.216,0.915-0.529,1.183C8.56,30.5,3.29,24.605,3.29,17.489c0-7.83,6.369-14.196,14.199-14.196
		c7.828,0,14.196,6.366,14.196,14.196C31.684,23.988,27.292,29.464,21.321,31.145z"/>
</g>
</svg>
