<?xml version="1.0" encoding="utf-8"?>
<!-- Generator: Adobe Illustrator 17.0.0, SVG Export Plug-In . SVG Version: 6.00 Build 0)  -->
<!DOCTYPE svg PUBLIC "-//W3C//DTD SVG 1.1//EN" "http://www.w3.org/Graphics/SVG/1.1/DTD/svg11.dtd">
<svg version="1.1" id="Layer_1" xmlns="http://www.w3.org/2000/svg" xmlns:xlink="http://www.w3.org/1999/xlink" x="0px" y="0px"
	 width="28.728px" height="10.769px" viewBox="0 0 28.728 10.769" enable-background="new 0 0 28.728 10.769" xml:space="preserve">
<g>
	<g>
		<text transform="matrix(1 0 0 1 12.2948 8.2397)" fill="#4E5050" font-family="'ProximaNova-Semibold'" font-size="9">Like</text>
		<g>
			<path fill="none" stroke="#4E5050" stroke-width="0.1929" stroke-miterlimit="10" d="M3.029,4.015c0,0,0.826-0.319,1.221-0.964
				c0.336-0.555,0.564-1.519,0.373-2.194c-0.16-0.561,0.48-1.012,1.012-0.601c0.529,0.409,0.627,0.964,0.627,1.446
				c0,0.481,0,1.808,0,1.808s2.072,0,2.555,0c0.482,0,0.893,0.506,0.893,0.892c0,0,0.047,0.904-0.904,0.904
				c-0.953,0-0.107,0-0.107,0s0.771,0,0.771,0.715c0,0.792-0.799,0.816-0.965,0.816c0,0,0.604,0.349,0.289,1.013
				C8.521,8.424,7.658,8.114,7.658,8.114s0.652,0.169,0.459,0.772c-0.096,0.3-0.459,0.409-0.928,0.409c-0.121,0-2.277,0-2.783,0
				c-0.508,0-1.143-0.192-1.143-0.795C3.264,7.896,3.029,4.015,3.029,4.015z"/>
			<path fill="#4E5050" d="M0,3.604v5.785h2.74V3.604H0z M2.08,9.169c-0.252,0-0.453-0.201-0.453-0.451S1.828,8.267,2.08,8.267
				c0.25,0,0.451,0.201,0.451,0.451S2.33,9.169,2.08,9.169z"/>
		</g>
	</g>
</g>
</svg>
