<?xml version="1.0" encoding="utf-8"?>
<!-- Generator: Adobe Illustrator 17.0.0, SVG Export Plug-In . SVG Version: 6.00 Build 0)  -->
<!DOCTYPE svg PUBLIC "-//W3C//DTD SVG 1.1//EN" "http://www.w3.org/Graphics/SVG/1.1/DTD/svg11.dtd">
<svg version="1.1" id="Layer_1" xmlns="http://www.w3.org/2000/svg" xmlns:xlink="http://www.w3.org/1999/xlink" x="0px" y="0px"
	 width="36.049px" height="11.358px" viewBox="0 0 36.049 11.358" enable-background="new 0 0 36.049 11.358" xml:space="preserve">
<g>
	<g>
		<text transform="matrix(1 0 0 1 12.6219 8.8282)" fill="#4E5050" font-family="'ProximaNova-Semibold'" font-size="9">Share</text>
		<path fill="#4E5050" d="M7.773,6.803c-0.434,0-0.834,0.142-1.16,0.379L3.555,5.767C3.59,5.626,3.613,5.479,3.613,5.329
			c0-0.081-0.008-0.159-0.02-0.237l3.338-1.43C7.268,3.908,7.68,4.056,8.129,4.056c1.117,0,2.027-0.908,2.027-2.027
			C10.156,0.908,9.246,0,8.129,0C7.008,0,6.102,0.908,6.102,2.028c0,0.059,0.004,0.115,0.008,0.173L3.043,4.016
			C2.719,3.711,2.285,3.523,1.807,3.523C0.809,3.523,0,4.332,0,5.329s0.809,1.806,1.807,1.806c0.402,0,0.771-0.134,1.072-0.357
			l2.926,1.848C5.801,8.677,5.797,8.728,5.797,8.779c0,1.091,0.885,1.977,1.977,1.977c1.092,0,1.977-0.886,1.977-1.977
			C9.75,7.688,8.865,6.803,7.773,6.803z"/>
	</g>
</g>
</svg>
