<?xml version="1.0" encoding="utf-8"?>
<!-- Generator: Adobe Illustrator 17.0.0, SVG Export Plug-In . SVG Version: 6.00 Build 0)  -->
<!DOCTYPE svg PUBLIC "-//W3C//DTD SVG 1.1//EN" "http://www.w3.org/Graphics/SVG/1.1/DTD/svg11.dtd">
<svg version="1.1" id="Layer_1" xmlns="http://www.w3.org/2000/svg" xmlns:xlink="http://www.w3.org/1999/xlink" x="0px" y="0px"
	 width="31.031px" height="10.202px" viewBox="0 0 31.031 10.202" enable-background="new 0 0 31.031 10.202" xml:space="preserve">
<g>
	<g>
		<g>
			<text transform="matrix(1 0 0 1 8.7022 7.5866)" fill="#4E5050" font-family="'ProximaNova-Semibold'" font-size="9">Reply</text>
		</g>
		<g>
			<polygon fill="#4E5050" stroke="#FFFFFF" stroke-width="0.085" stroke-miterlimit="10" points="1.026,7.958 0.811,10.093 
				2.373,8.623 1.699,8.292 			"/>
			<path fill="#4E5050" d="M3.832,3.032c-0.104-0.026-0.227-0.036-0.356-0.04L1.115,7.777l1.348,0.665l2.344-4.747
				C4.572,3.426,4.244,3.143,3.832,3.032z"/>
			<path fill="#4E5050" d="M5.932,1.418l0.371-0.752L4.953,0L4.582,0.752l0.154,0.076L4.625,1.053L4.471,0.977l-0.449,0.91
				c0.484,0.342,0.822,0.835,1.045,1.28l0.752-1.524l-0.15-0.076l0.109-0.225L5.932,1.418z"/>
			<path fill="#4E5050" d="M3.303,1.673c-0.641-0.185-1.23-0.04-1.484,0.042C1.803,1.657,1.619,1.017,1.584,0.899
				c-0.035-0.121-0.193-0.179-0.274-0.07C1.229,0.938,0.027,2.825,0.027,2.825s-0.043,0.06-0.021,0.161l0,0
				c0,0.004,0.002,0.007,0.004,0.011c0,0.003,0,0.007,0,0.01h0.002c0.035,0.097,0.105,0.125,0.105,0.125s2.021,0.956,2.148,1.004
				c0.125,0.049,0.23-0.086,0.193-0.207C2.424,3.807,2.225,3.109,2.225,3.109L2.213,3.072c0.385-0.124,1.1-0.307,1.652-0.16
				c0.93,0.246,1.459,1.31,1.459,1.31S4.858,2.12,3.303,1.673z"/>
		</g>
	</g>
</g>
</svg>
