<?xml version="1.0" encoding="utf-8"?>
<!-- Generator: Adobe Illustrator 17.0.0, SVG Export Plug-In . SVG Version: 6.00 Build 0)  -->
<!DOCTYPE svg PUBLIC "-//W3C//DTD SVG 1.1//EN" "http://www.w3.org/Graphics/SVG/1.1/DTD/svg11.dtd">
<svg version="1.1" id="Layer_1" xmlns="http://www.w3.org/2000/svg" xmlns:xlink="http://www.w3.org/1999/xlink" x="0px" y="0px"
	 width="39.141px" height="10.675px" viewBox="0 0 39.141 10.675" enable-background="new 0 0 39.141 10.675" xml:space="preserve">
<g>
	<g>
		<text transform="matrix(1 0 0 1 12.2851 8.1454)" fill="#4E5050" font-family="'ProximaNova-Semibold'" font-size="9">Dislike</text>
		<g>
			<path fill="none" stroke="#4E5050" stroke-width="0.1929" stroke-miterlimit="10" d="M6.775,5.376c0,0-0.824,0.319-1.217,0.964
				C5.22,6.894,4.989,7.858,5.183,8.533c0.16,0.562-0.48,1.013-1.012,0.603C3.64,8.726,3.544,8.172,3.544,7.69
				c0-0.483,0-1.809,0-1.809s-2.074,0-2.557,0c-0.48,0-0.891-0.506-0.891-0.893c0,0-0.047-0.903,0.904-0.903
				c0.953,0,0.109,0,0.109,0s-0.773,0-0.773-0.716c0-0.791,0.795-0.814,0.965-0.814c0,0-0.603-0.35-0.289-1.013
				c0.271-0.576,1.133-0.266,1.133-0.266s-0.65-0.169-0.457-0.771c0.096-0.302,0.457-0.41,0.926-0.41c0.121,0,2.279,0,2.785,0
				c0.506,0,1.143,0.192,1.143,0.795C6.542,1.494,6.775,5.376,6.775,5.376z"/>
			<path fill="#4E5050" d="M7.066,0.002v5.785h2.74V0.002H7.066z M7.726,1.125c-0.25,0-0.451-0.202-0.451-0.452
				S7.476,0.22,7.726,0.22s0.453,0.202,0.453,0.452S7.976,1.125,7.726,1.125z"/>
		</g>
	</g>
</g>
</svg>
