<?xml version="1.0" encoding="utf-8"?>
<!-- Generator: Adobe Illustrator 17.0.0, SVG Export Plug-In . SVG Version: 6.00 Build 0)  -->
<!DOCTYPE svg PUBLIC "-//W3C//DTD SVG 1.1//EN" "http://www.w3.org/Graphics/SVG/1.1/DTD/svg11.dtd">
<svg version="1.1" id="Layer_1" xmlns="http://www.w3.org/2000/svg" xmlns:xlink="http://www.w3.org/1999/xlink" x="0px" y="0px"
	 width="31.239px" height="11.95px" viewBox="0 0 31.239 11.95" enable-background="new 0 0 31.239 11.95" xml:space="preserve">
<g>
	<g>
		<text transform="matrix(1 0 0 1 13.9411 9.4209)" fill="#4E5050" font-family="'ProximaNova-Semibold'" font-size="9">Flag</text>
		<g>
			<path fill="#505152" d="M3.769,0.014C3.64-0.031,3.498,0.039,3.453,0.169L0.014,10.309c-0.045,0.131,0.025,0.273,0.156,0.316
				C0.301,10.67,0.441,10.6,0.486,10.47L3.926,0.33C3.971,0.199,3.9,0.058,3.769,0.014z"/>
			<path fill="#505152" d="M11.609,2.421c0,0-0.24-0.697-1.811-0.968C8.502,1.229,7.832,1.556,6.594,1.417
				C5.5,1.293,4.633,0.724,4.441,0.6L2.652,5.872C2.93,6.107,3.609,6.631,4.556,6.698c1.42,0.099,2.225-0.343,3.758,0.091
				c1.533,0.434,1.473,0.774,1.473,0.774L11.609,2.421z"/>
		</g>
	</g>
</g>
</svg>
