<?xml version="1.0" encoding="utf-8"?>
<!-- Generator: Adobe Illustrator 17.0.0, SVG Export Plug-In . SVG Version: 6.00 Build 0)  -->
<!DOCTYPE svg PUBLIC "-//W3C//DTD SVG 1.1//EN" "http://www.w3.org/Graphics/SVG/1.1/DTD/svg11.dtd">
<svg version="1.1" id="Layer_1" xmlns="http://www.w3.org/2000/svg" xmlns:xlink="http://www.w3.org/1999/xlink" x="0px" y="0px"
	 width="149.248px" height="135.628px" viewBox="0 0 149.248 135.628" enable-background="new 0 0 149.248 135.628"
	 xml:space="preserve">
<path id="OUTLINE_BOX_10_" fill="#5481C2" d="M0,0v135.628h149.248V0H0z M146.574,132.63H3.326V3h143.248V132.63z"/>
<g>
	<text transform="matrix(1 0 0 1 65.9619 72.0484)"><tspan x="0" y="0" fill="#5481C2" font-family="'ProximaNova-Bold'" font-size="12">NO</tspan><tspan x="-9.731" y="14.4" fill="#5481C2" font-family="'ProximaNova-Bold'" font-size="12">IMAGE</tspan></text>
</g>
<g id="SPYGLASS_8_">
	<g>
		<g>
			<g>
				<path fill="#5481C2" d="M74.95,32.377c-24.086,0-43.612,19.526-43.612,43.612S50.864,119.6,74.95,119.6
					c24.086,0,43.612-19.526,43.612-43.612S99.036,32.377,74.95,32.377z M74.95,105.598c-16.327,0-29.61-13.283-29.61-29.61
					s13.283-29.61,29.61-29.61s29.61,13.283,29.61,29.61S91.277,105.598,74.95,105.598z"/>
			</g>
		</g>
		<g>
			<path fill="#5481C2" d="M120.612,95.781c-2.646,6.082-6.475,11.531-11.191,16.066c1.728,2.573,10.754,14.864,22.734,22.283
				h15.594v-25.208C136.706,100.516,122.806,96.332,120.612,95.781z"/>
		</g>
	</g>
</g>
</svg>
